<svg xmlns="http://www.w3.org/2000/svg" viewBox="0 0 120 120" width="120" height="120">
  <defs>
    <!-- Gradient Definitions -->
    <radialGradient id="goldGradient" cx="50%" cy="30%" r="70%">
      <stop offset="0%" style="stop-color:#FFD700;stop-opacity:1" />
      <stop offset="50%" style="stop-color:#D4AF37;stop-opacity:1" />
      <stop offset="100%" style="stop-color:#B8860B;stop-opacity:1" />
    </radialGradient>
    
    <linearGradient id="crownGradient" x1="0%" y1="0%" x2="0%" y2="100%">
      <stop offset="0%" style="stop-color:#FFD700;stop-opacity:1" />
      <stop offset="50%" style="stop-color:#D4AF37;stop-opacity:1" />
      <stop offset="100%" style="stop-color:#B8860B;stop-opacity:1" />
    </linearGradient>
    
    <!-- Shadow Filter -->
    <filter id="shadow" x="-50%" y="-50%" width="200%" height="200%">
      <feDropShadow dx="2" dy="4" stdDeviation="3" flood-color="#000000" flood-opacity="0.3"/>
    </filter>
    
    <!-- Glow Filter -->
    <filter id="glow" x="-50%" y="-50%" width="200%" height="200%">
      <feGaussianBlur stdDeviation="4" result="coloredBlur"/>
      <feMerge> 
        <feMergeNode in="coloredBlur"/>
        <feMergeNode in="SourceGraphic"/>
      </feMerge>
    </filter>
  </defs>
  
  <!-- Background Circle with Gradient -->
  <circle cx="60" cy="60" r="50" fill="url(#goldGradient)" opacity="0.15" filter="url(#glow)"/>
  
  <!-- Outer Decorative Ring -->
  <circle cx="60" cy="60" r="48" fill="none" stroke="url(#goldGradient)" stroke-width="2" opacity="0.6"/>
  
  <!-- Inner Ring -->
  <circle cx="60" cy="60" r="42" fill="none" stroke="#D4AF37" stroke-width="3" opacity="0.9"/>
  
  <!-- Crown Base -->
  <path d="M30 75 L25 45 L40 58 L60 40 L80 58 L95 45 L90 75 Z" 
        fill="url(#crownGradient)" 
        filter="url(#shadow)" 
        opacity="0.95"/>
  
  <!-- Crown Details -->
  <path d="M35 70 L85 70 L87 55 L75 65 L60 50 L45 65 L33 55 Z" 
        fill="#FFD700" 
        opacity="0.8"/>
  
  <!-- Crown Jewels -->
  <circle cx="45" cy="62" r="2" fill="#FF6B6B" opacity="0.8"/>
  <circle cx="60" cy="58" r="2.5" fill="#4ECDC4" opacity="0.8"/>
  <circle cx="75" cy="62" r="2" fill="#45B7D1" opacity="0.8"/>
  
  <!-- Crown Spikes -->
  <polygon points="40,58 45,45 50,58" fill="url(#crownGradient)" opacity="0.9"/>
  <polygon points="55,50 60,35 65,50" fill="url(#crownGradient)" opacity="0.9"/>
  <polygon points="70,58 75,45 80,58" fill="url(#crownGradient)" opacity="0.9"/>
  
  <!-- Decorative Elements -->
  <circle cx="85" cy="35" r="3" fill="#D4AF37" opacity="0.7" filter="url(#glow)"/>
  <circle cx="35" cy="85" r="2.5" fill="#D4AF37" opacity="0.6" filter="url(#glow)"/>
  <circle cx="90" cy="80" r="2" fill="#FFD700" opacity="0.5"/>
  <circle cx="30" cy="40" r="1.5" fill="#FFD700" opacity="0.4"/>
  
  <!-- Stylish Border Lines -->
  <path d="M20 60 Q30 50, 40 60" stroke="#D4AF37" stroke-width="2" fill="none" opacity="0.6"/>
  <path d="M80 60 Q90 50, 100 60" stroke="#D4AF37" stroke-width="2" fill="none" opacity="0.6"/>
  
  <!-- Central Highlight -->
  <circle cx="60" cy="55" r="8" fill="none" stroke="#FFD700" stroke-width="1" opacity="0.4"/>
</svg>
